<svg xmlns="http://www.w3.org/2000/svg" style="display: none;">
 <symbol id="bskySvg" xmlns="http://www.w3.org/2000/svg" viewBox="0 0 512 512" transform="scale(0.78125)" transform-origin="center center">
  <path d="M111.8 62.2C170.2 105.9 233 194.7 256 242.4c23-47.6 85.8-136.4 144.2-180.2c42.1-31.6 110.3-56 110.3 21.8c0 15.5-8.9 130.5-14.1 149.2C478.2 298 412 314.6 353.1 304.5c102.9 17.5 129.1 75.5 72.5 133.5c-107.4 110.2-154.3-27.6-166.3-62.9l0 0c-1.7-4.9-2.6-7.8-3.3-7.8s-1.6 3-3.3 7.8l0 0c-12 35.3-59 173.1-166.3 62.9c-56.5-58-30.4-116 72.5-133.5C100 314.6 33.8 298 15.7 233.1C10.4 214.4 1.5 99.4 1.5 83.9c0-77.8 68.2-53.4 110.3-21.8z"/>
 </symbol>
 <symbol id="youtubeSvg" xmlns="http://www.w3.org/2000/svg" viewBox="0 0 40 40">
 <path d="M37.6,27.1c0,0-0.3,2.4-1.4,3.5c-1.4,1.4-2.9,1.4-3.6,1.5c-5,0.4-12.4,0.4-12.4,0.4s-9.2-0.1-12.1-0.4 c-0.8-0.1-2.6-0.1-3.9-1.5c-1.1-1.1-1.4-3.5-1.4-3.5s-0.4-2.9-0.4-5.7v-2.7c0-2.9,0.4-5.7,0.4-5.7s0.3-2.4,1.4-3.5 C5.5,8,7,8,7.7,7.9c5-0.4,12.4-0.4,12.4-0.4h0c0,0,7.5,0,12.4,0.4C33.3,8,34.8,8,36.2,9.4c1.1,1.1,1.4,3.5,1.4,3.5s0.4,2.9,0.4,5.7 v2.7C37.9,24.2,37.6,27.1,37.6,27.1z M16.5,14.6l0,9.9l9.6-5L16.5,14.6z"></path>
 </symbol>
 <symbol id="lastfmSvg" xmlns="http://www.w3.org/2000/svg" viewBox="0 0 40 40">
   <path d="M28.3,14.8c0,0.1,0.1,0.4,0.2,0.9c0.1,0.4,0.3,0.7,0.5,1c0.2,0.3,0.5,0.5,0.9,0.7s0.7,0.3,0.9,0.4c0.3,0.1,0.6,0.2,1.1,0.3 c4.5,1.3,6.8,3.6,6.8,6.9c0,2-0.7,3.7-2.2,5.1c-1.5,1.3-3.2,2-5.3,2c-0.8,0-1.6-0.1-2.3-0.4c-0.7-0.3-1.4-0.6-1.9-1 c-0.5-0.4-1.1-0.9-1.6-1.6c-0.5-0.7-1-1.3-1.3-1.8c-0.3-0.6-0.7-1.3-1.1-2.2c-0.4-0.9-0.7-1.6-0.9-2.2c-0.2-0.6-0.5-1.3-0.8-2.2 c-0.3-0.9-0.6-1.6-0.7-2c-0.4-1.1-0.9-2.1-1.3-2.8c-0.4-0.7-0.9-1.4-1.5-2c-0.6-0.6-1.3-1.1-2.2-1.3c-0.8-0.3-1.8-0.4-3-0.4 c-1.3,0-2.6,0.4-3.8,1.2c-1.2,0.8-2.2,1.8-2.9,3c-0.7,1.2-1.1,2.5-1.1,3.9c0,2.2,0.7,4.2,2.2,5.8s3.3,2.5,5.5,2.5 c2.5,0,4.3-0.7,5.4-2c0.8-0.9,1.4-1.7,1.7-2.4l1.8,3.2c-0.2,0.5-0.5,1-0.9,1.5l0,0c-1.8,2.1-4.5,3.2-8.1,3.2c-2,0-3.9-0.6-5.6-1.7 s-3-2.5-4-4.3c-0.9-1.8-1.4-3.7-1.4-5.7c0-1.5,0.3-2.9,0.9-4.3s1.4-2.6,2.4-3.7s2.2-1.9,3.6-2.5s2.8-1,4.3-1c1.2,0,2.3,0.1,3.3,0.4 s1.9,0.6,2.6,1c0.7,0.4,1.4,1,2,1.7c0.6,0.7,1.1,1.4,1.5,2.1c0.4,0.7,0.8,1.5,1.2,2.4c0.4,0.9,0.8,1.8,1.1,2.6 c0.3,0.8,0.6,1.7,1,2.7c0.4,1,0.8,1.9,1.1,2.7c1.3,2.8,3,4.2,4.9,4.2c1.1,0,2.1-0.3,2.9-1c0.8-0.7,1.2-1.6,1.2-2.7 c0-0.6-0.1-1.1-0.4-1.5s-0.6-0.7-1.1-1c-0.4-0.2-0.9-0.4-1.5-0.7c-0.6-0.2-1.2-0.4-1.8-0.6c-0.6-0.2-1.2-0.4-1.8-0.7 c-0.6-0.3-1.2-0.7-1.7-1.1c-0.5-0.4-1-1-1.4-1.7s-0.7-1.6-0.8-2.6c0-0.2-0.1-0.5-0.1-0.7c0-1.5,0.6-2.9,1.8-4 c1.2-1.1,2.6-1.7,4.1-1.6c1.1,0,1.9,0.1,2.5,0.3c0.6,0.2,1.2,0.5,1.9,1.1h0c0.2,0.2,0.3,0.3,0.5,0.5s0.3,0.4,0.5,0.8 c0.2,0.3,0.3,0.5,0.4,0.6l-2.7,2.1c-0.4-0.7-0.7-1.2-1.1-1.5v0c-0.3-0.3-1-0.4-2-0.4c-0.7,0-1.3,0.2-1.8,0.7 C28.5,13.5,28.3,14.1,28.3,14.8L28.3,14.8z"></path>
 </symbol>
 <symbol id="githubSvg" xmlns="http://www.w3.org/2000/svg" viewBox="0 0 40 40">
  <path d="M36,20.3c0,3.5-1,6.6-3.1,9.4c-2,2.8-4.7,4.7-7.9,5.8c-0.4,0.1-0.6,0-0.8-0.1c-0.2-0.2-0.3-0.4-0.3-0.6v-4.4 c0-1.3-0.4-2.3-1.1-3c0.8-0.1,1.5-0.2,2.1-0.4c0.6-0.2,1.3-0.4,2-0.8c0.7-0.4,1.2-0.8,1.7-1.4c0.5-0.5,0.8-1.3,1.1-2.2 s0.4-2,0.4-3.1c0-1.7-0.5-3.1-1.6-4.3c0.5-1.3,0.5-2.7-0.2-4.2c-0.4-0.1-1,0-1.7,0.2c-0.7,0.3-1.4,0.6-1.9,0.9L24,12.5 c-1.3-0.4-2.6-0.5-4-0.5s-2.7,0.2-4,0.5c-0.2-0.2-0.5-0.3-0.9-0.6c-0.4-0.2-0.9-0.5-1.7-0.8c-0.8-0.3-1.4-0.4-1.8-0.3 c-0.6,1.6-0.7,3-0.1,4.2c-1.1,1.2-1.6,2.6-1.6,4.3c0,1.2,0.1,2.2,0.4,3.1s0.6,1.6,1.1,2.2s1,1,1.7,1.4c0.7,0.4,1.3,0.6,2,0.8 c0.6,0.2,1.3,0.3,2.1,0.4c-0.6,0.5-0.9,1.2-1,2.1c-0.3,0.1-0.6,0.2-0.9,0.3c-0.3,0.1-0.7,0.1-1.2,0.1c-0.5,0-0.9-0.1-1.4-0.4 c-0.5-0.3-0.8-0.7-1.2-1.3c-0.3-0.4-0.6-0.8-1-1.1c-0.4-0.3-0.8-0.4-1-0.5L9,26.5c-0.3,0-0.5,0-0.6,0.1c-0.1,0.1-0.1,0.1-0.1,0.2 c0,0.1,0.1,0.2,0.2,0.3c0.1,0.1,0.2,0.2,0.3,0.2l0.1,0.1c0.3,0.1,0.6,0.4,0.9,0.8s0.5,0.7,0.7,1.1l0.2,0.5c0.2,0.5,0.5,1,0.9,1.3 c0.4,0.3,0.9,0.5,1.4,0.6c0.5,0.1,1,0.1,1.4,0.1c0.5,0,0.9,0,1.2-0.1l0.5-0.1c0,0.5,0,1.1,0,1.9c0,0.7,0,1.1,0,1.1 c0,0.2-0.1,0.5-0.3,0.6c-0.2,0.2-0.5,0.2-0.8,0.1c-3.2-1.1-5.8-3-7.9-5.8S4,23.8,4,20.3c0-2.9,0.7-5.6,2.1-8S9.5,7.8,12,6.4 s5.1-2.1,8-2.1s5.6,0.7,8,2.1s4.4,3.4,5.8,5.8S36,17.4,36,20.3L36,20.3z"></path>
 </symbol>
 <symbol id="xtwitterSvg" xmlns="http://www.w3.org/2000/svg" viewBox="0 0 40 40">
  <path d="M36.3,10.2c-1,1.3-2.1,2.5-3.4,3.5c0,0.2,0,0.4,0,1c0,1.7-0.2,3.6-0.9,5.3c-0.6,1.7-1.2,3.5-2.4,5.1 c-1.1,1.5-2.3,3.1-3.7,4.3c-1.4,1.2-3.3,2.3-5.3,3c-2.1,0.8-4.2,1.2-6.6,1.2c-3.6,0-7-1-10.2-3c0.4,0,1.1,0.1,1.5,0.1 c3.1,0,5.9-1,8.2-2.9c-1.4,0-2.7-0.4-3.8-1.3c-1.2-1-1.9-2-2.2-3.3c0.4,0.1,1,0.1,1.2,0.1c0.6,0,1.2-0.1,1.7-0.2 c-1.4-0.3-2.7-1.1-3.7-2.3s-1.4-2.6-1.4-4.2v-0.1c1,0.6,2,0.9,3,0.9c-1-0.6-1.5-1.3-2.2-2.4c-0.6-1-0.9-2.1-0.9-3.3s0.3-2.3,1-3.4 c1.5,2.1,3.6,3.6,6,4.9s4.9,2,7.6,2.1c-0.1-0.6-0.1-1.1-0.1-1.4c0-1.8,0.8-3.5,2-4.7c1.2-1.2,2.9-2,4.7-2c2,0,3.6,0.8,4.8,2.1 c1.4-0.3,2.9-0.9,4.2-1.5c-0.4,1.5-1.4,2.7-2.9,3.6C33.8,11.2,35.1,10.9,36.3,10.2L36.3,10.2z"></path>
 </symbol>
 <symbol id="searchSvg" xmlns="http://www.w3.org/2000/svg" x="0px" y="0px" viewBox="0 0 50 50">
  <path d="M 21 3 C 11.621094 3 4 10.621094 4 20 C 4 29.378906 11.621094 37 21 37 C 24.710938 37 28.140625 35.804688 30.9375 33.78125 L 44.09375 46.90625 L 46.90625 44.09375 L 33.90625 31.0625 C 36.460938 28.085938 38 24.222656 38 20 C 38 10.621094 30.378906 3 21 3 Z M 21 5 C 29.296875 5 36 11.703125 36 20 C 36 28.296875 29.296875 35 21 35 C 12.703125 35 6 28.296875 6 20 C 6 11.703125 12.703125 5 21 5 Z"></path>
 </symbol>
  <symbol id="changelogSvg" xmlns="http://www.w3.org/2000/svg" viewBox="0 0 1024 1024">
  <path d="M864.83 299.82L649.39 108.69l-25.8-9.79h-332c-82.2 0-149.07 66.87-149.07 149.07v531.19c0 82.19 66.87 149.06 149.07 149.06h437.24c82.2 0 149.07-66.87 149.07-149.06V328.9l-13.07-29.08zm-250.81-3.67l.26-114.68 154.77 137.31H642.23c-6.6 0-18.42-.81-23.45-6.24-4.17-4.5-4.96-13.46-4.76-16.39zm-272.68 518.9c0 18.67-15.14 33.8-33.81 33.8s-33.81-15.13-33.81-33.8V659.94c0-18.67 15.14-33.81 33.81-33.81s33.81 15.14 33.81 33.81v155.11zm124.53 33.81c-48.11 0-87.25-39.14-87.25-87.25s39.14-87.25 87.25-87.25 87.25 39.14 87.25 87.25-39.14 87.25-87.25 87.25zm289.71-79.87c-3.77 44.66-41.26 79.86-86.87 79.86-48.11 0-87.25-39.14-87.25-87.25s39.14-87.25 87.25-87.25c5.88 0 11.78.59 17.52 1.76l-.02.09c11.46 1.74 20.28 11.55 20.28 23.5 0 13.18-10.68 23.86-23.86 23.86-2.04 0-3.99-.33-5.88-.82l-.03.13c-2.62-.54-5.31-.8-8.02-.8-21.79 0-39.52 17.74-39.52 39.52s17.73 39.52 39.52 39.52c13.37 0 25.16-6.71 32.32-16.91h-14.67c-11.53 0-20.88-9.35-20.88-20.88s9.35-20.88 20.88-20.88h49.22c11.53 0 20.88 9.35 20.88 20.88 0 1.99-.36 3.86-.87 5.67zm44.58-173.23H220.28v-347.8c0-39.33 31.99-71.32 71.32-71.32h245.19c-.05.82-.24 1.6-.24 2.43V290.1c-.73 10.89-.86 46.03 24.01 73.96 13.18 14.81 38.05 32.46 81.68 32.46h157.93v199.24z"></path>
  <path d="M465.87 722.08c-21.79 0-39.52 17.74-39.52 39.52s17.73 39.52 39.52 39.52c21.79 0 39.52-17.73 39.52-39.52s-17.72-39.52-39.52-39.52z"></path>
 </symbol>
  <symbol id="checkedSvg" xmlns="http://www.w3.org/2000/svg">
  <path d="M 12 0 C 11.4 0 11 0.4 11 1 L 11 2 C 11 2.6 11.4 3 12 3 C 12.6 3 13 2.6 13 2 L 13 1 C 13 0.4 12.6 0 12 0 z M 4.1992188 3.1992188 C 3.9492188 3.1992187 3.7 3.3 3.5 3.5 C 3.1 3.9 3.1 4.5003906 3.5 4.9003906 L 4.1992188 5.5996094 C 4.5992187 5.9996094 5.1996094 5.9996094 5.5996094 5.5996094 C 5.9996094 5.1996094 5.9996094 4.5992188 5.5996094 4.1992188 L 4.9003906 3.5 C 4.7003906 3.3 4.4492188 3.1992188 4.1992188 3.1992188 z M 19.800781 3.1992188 C 19.550781 3.1992188 19.299609 3.3 19.099609 3.5 L 18.400391 4.1992188 C 18.000391 4.5992187 18.000391 5.1996094 18.400391 5.5996094 C 18.800391 5.9996094 19.400781 5.9996094 19.800781 5.5996094 L 20.5 4.9003906 C 20.9 4.5003906 20.9 3.9 20.5 3.5 C 20.3 3.3 20.050781 3.1992188 19.800781 3.1992188 z M 12 5 A 7 7 0 0 0 5 12 A 7 7 0 0 0 12 19 A 7 7 0 0 0 19 12 A 7 7 0 0 0 12 5 z M 1 11 C 0.4 11 0 11.4 0 12 C 0 12.6 0.4 13 1 13 L 2 13 C 2.6 13 3 12.6 3 12 C 3 11.4 2.6 11 2 11 L 1 11 z M 22 11 C 21.4 11 21 11.4 21 12 C 21 12.6 21.4 13 22 13 L 23 13 C 23.6 13 24 12.6 24 12 C 24 11.4 23.6 11 23 11 L 22 11 z M 4.9003906 18.099609 C 4.6503906 18.099609 4.3992188 18.200391 4.1992188 18.400391 L 3.5 19.099609 C 3.1 19.499609 3.1 20.1 3.5 20.5 C 3.9 20.9 4.5003906 20.9 4.9003906 20.5 L 5.5996094 19.800781 C 5.9996094 19.400781 5.9996094 18.800391 5.5996094 18.400391 C 5.3996094 18.200391 5.1503906 18.099609 4.9003906 18.099609 z M 19.099609 18.099609 C 18.849609 18.099609 18.600391 18.200391 18.400391 18.400391 C 18.000391 18.800391 18.000391 19.400781 18.400391 19.800781 L 19.099609 20.5 C 19.499609 20.9 20.1 20.9 20.5 20.5 C 20.9 20.1 20.9 19.499609 20.5 19.099609 L 19.800781 18.400391 C 19.600781 18.200391 19.349609 18.099609 19.099609 18.099609 z M 12 21 C 11.4 21 11 21.4 11 22 L 11 23 C 11 23.6 11.4 24 12 24 C 12.6 24 13 23.6 13 23 L 13 22 C 13 21.4 12.6 21 12 21 z"></path>
  </symbol>
  <symbol id="settingsSvg" xmlns="http://www.w3.org/2000/svg" viewBox="0 0 24 24">
  <path fill-rule="evenodd" clip-rule="evenodd" d="M12.4277 2C11.3139 2 10.2995 2.6007 8.27081 3.80211L7.58466 4.20846C5.55594 5.40987 4.54158 6.01057 3.98466 7C3.42773 7.98943 3.42773 9.19084 3.42773 11.5937V12.4063C3.42773 14.8092 3.42773 16.0106 3.98466 17C4.54158 17.9894 5.55594 18.5901 7.58466 19.7915L8.27081 20.1979C10.2995 21.3993 11.3139 22 12.4277 22C13.5416 22 14.5559 21.3993 16.5847 20.1979L17.2708 19.7915C19.2995 18.5901 20.3139 17.9894 20.8708 17C21.4277 16.0106 21.4277 14.8092 21.4277 12.4063V11.5937C21.4277 9.19084 21.4277 7.98943 20.8708 7C20.3139 6.01057 19.2995 5.40987 17.2708 4.20846L16.5847 3.80211C14.5559 2.6007 13.5416 2 12.4277 2ZM8.67773 12C8.67773 9.92893 10.3567 8.25 12.4277 8.25C14.4988 8.25 16.1777 9.92893 16.1777 12C16.1777 14.0711 14.4988 15.75 12.4277 15.75C10.3567 15.75 8.67773 14.0711 8.67773 12Z"></path>
  </symbol>
</svg>